<svg id="Capa_1" data-name="Capa 1" xmlns="http://www.w3.org/2000/svg" viewBox="0 0 841.89 595.28"><defs><style>.cls-1{fill:#1aa03c;}.cls-2{fill:#e62138;}.cls-3{fill:#00694b;}.cls-4,.cls-5{fill:#fff;}.cls-4{opacity:0.2;}.cls-5{opacity:0.18;}</style></defs><title>Mesa de trabajo 4</title><path class="cls-1" d="M351,88.57c43.64,73.21,42.09,150.61,39.78,225.15-2.47,79.79-5,160-26,236.48-20.9-118.43-6.06-235.6-38.13-354-5.36-19.82-12.06-39.84-11.32-59.35s10-38.9,31.59-49.33"/><path class="cls-2" d="M478.2,227c-45.37,38.65-55,99.32-63.66,158.09C405.29,448,396,511.22,402.09,579.26c33.47-83.18,38.05-180.22,80.49-258.75,7.1-13.14,15.3-25.89,17.45-41.32s-2.58-34.34-18.43-51.4"/><path class="cls-3" d="M502.84,239c4.81,5.34,7.35,11.06,7.11,16-.57,11.5-2.14,31.94-6.19,34.71-5.67,3.9-10.08-22.93-10.08-22.93H478.26l-.3-16.91-27.5.4s10.67-28.39,26.12-26.27,46,2.69,30.21-33.8L520.64,204s3.87,30-17.8,35Z"/><path class="cls-3" d="M321.11,87.68c-6.58,3.35-10.65,8.55-11.4,14.55-1.73,13.9-4.16,39-.13,44.69,5.65,8,16.21-20.88,16.21-20.88l17.55,9.38,3.84-19.75,31.2,17.23s-6.27-40-24.29-46.87S301.21,61.16,326.7,27.77L308.08,35.6s-10.6,33,13,52.08Z"/><path class="cls-4" d="M364.17,130.76S361,161,370.9,190.06s15.46,111.7,15.46,111.7S383.07,149.61,364.17,130.76Z"/><path class="cls-5" d="M507.38,253.18s-10.16-18.85-36.91-22.79C470.47,230.39,500.4,224.73,507.38,253.18Z"/><path class="cls-5" d="M370.06,121.1s-11.67-37-34.09-33.63Z"/><path class="cls-5" d="M465.08,259.55s-26.59,20.34-41.77,123.83C423.31,383.38,435.91,320.61,465.08,259.55Z"/></svg>