<svg id="Capa_1" data-name="Capa 1" xmlns="http://www.w3.org/2000/svg" xmlns:xlink="http://www.w3.org/1999/xlink" viewBox="0 0 841.89 595.28"><defs><style>.cls-1,.cls-12{fill:none;}.cls-2{clip-path:url(#clip-path);}.cls-3{fill:#ce1328;}.cls-4{clip-path:url(#clip-path-2);}.cls-5{fill:#1d1d1b;}.cls-11,.cls-6,.cls-8{fill:#fff;}.cls-7{fill:#f29378;}.cls-8{opacity:0.14;}.cls-9{fill:#c1172c;}.cls-10{fill:#0d8251;}.cls-11{opacity:0.32;}.cls-12{stroke:#fff;stroke-miterlimit:10;opacity:0.21;}</style><clipPath id="clip-path"><rect class="cls-1" width="841.89" height="595.28"/></clipPath><clipPath id="clip-path-2"><path class="cls-1" d="M325.1,469s50.91-7.57,64,6.88,91.61,16.51,113.57-15.14c0,0-44.77,111.45-148.66,61.23C354,522,321.66,501.32,325.1,469Z"/></clipPath></defs><title>Mesa de trabajo 2</title><g class="cls-2"><path class="cls-3" d="M274.87,316.94s-10.09,78.43,6.42,171.31-6.42,134.16-6.42,134.16,131.51,19.78,206.4-20.64c98.15-53,113.51-337.17,72.24-379.11s-231.17,9.66-231.17,9.66Z"/><g class="cls-4"><path class="cls-5" d="M325.1,469s50.91-7.57,64,6.88,91.61,16.51,113.57-15.14c0,0-44.77,111.45-148.66,61.23C354,522,321.66,501.32,325.1,469Z"/><rect class="cls-6" x="342.3" y="427.25" width="217.4" height="70.59"/><circle class="cls-7" cx="444.07" cy="530.86" r="30.32"/></g><path class="cls-8" d="M451.91,46.11,461.55,59S448,62.85,451.91,46.11Z"/><path class="cls-9" d="M365.69,264.31c-43.21,78.1-79.83,78.3-92.38,77.67l14.08,8.67s65.23-17.28,87.24-68.19C370.34,274.24,365.69,264.31,365.69,264.31Z"/><path class="cls-9" d="M575.26,273.19c7,40.71-4.55,77.46-4.55,77.46-28.9-16.19-84-86.34-84-86.34-18.57,41.28-62.24,91.48-62.24,91.48l15.79,16s45-28.43,52.55-53.2c0,0,36.56,33.71,71.07,124.89l16.58-128.17Z"/><path class="cls-5" d="M515.48,362.52s-17.2-34.29-49-27.17c0,0-13.32,6.1-4.57-7S531.35,332.58,515.48,362.52Z"/><path class="cls-8" d="M467.58,324.5s43.72,4.3,46,27.61C513.59,352.11,523.39,329.09,467.58,324.5Z"/><path class="cls-10" d="M268.86,351.57s43.16,14.22,96.83-82.78c0,0,33,70.8,61.92,87,0,0,39.21-43.66,57.79-84.94,0,0,60.64,68.74,89.54,84.94,0,0,34.34-137.33-63.16-156.37-34.93-6.82-62.09-34.92-65.53-70.34-2.18-22.42,3.35-46.72,26.76-66.92l-8.25-22.47H450.31s-49.61,56.52-71,115.65a83.52,83.52,0,0,1-48.77,49.86C295.51,218.39,246.94,251,268.86,351.57Z"/><path class="cls-8" d="M327.75,215.58s101.14-39.9,198.14,13.07C525.89,228.65,447.45,154.35,327.75,215.58Z"/><path class="cls-8" d="M301.48,241s-39,16.51-25.23,96.31"/><path class="cls-8" d="M451.58,56.67s-73.93,74.1-14.35,121.57C437.23,178.24,396.81,128.36,451.58,56.67Z"/><path class="cls-8" d="M382.36,266.75s17.11,58.66,42.33,67.22C424.69,334,408.75,285.26,382.36,266.75Z"/><path class="cls-8" d="M530.23,233.46s28.34,78,39.7,90.39C569.93,323.85,565.83,270.7,530.23,233.46Z"/><path class="cls-9" d="M489.77,455.85s29.82-17.43,39.47,1.84c0,0,8.1-10.09-10-11.93A37.8,37.8,0,0,0,489.77,455.85Z"/><polygon class="cls-5" points="261.08 389.07 304.59 396.68 307.21 383.81 263.74 371.43 261.08 389.07"/><polygon class="cls-5" points="578.7 397.92 521.55 405.52 518.12 392.66 575.22 380.27 578.7 397.92"/><circle class="cls-5" cx="350.94" cy="399.03" r="48.57"/><circle class="cls-3" cx="350.94" cy="399.28" r="37.15"/><circle class="cls-5" cx="473.26" cy="399.03" r="48.57"/><circle class="cls-3" cx="473.26" cy="399.28" r="37.15"/><path class="cls-5" d="M393.21,395.52s21.51-17.48,39,0V408s-20.18-18.81-39,0Z"/><circle class="cls-11" cx="473.26" cy="399.28" r="37.15"/><circle class="cls-11" cx="350.94" cy="399.28" r="37.15"/><path class="cls-5" d="M374.53,405.11S353,379,324,403.21C324,403.21,351.94,388.46,374.53,405.11Z"/><path class="cls-5" d="M358.93,395.52s-9.14-10.39-25.28-6.34c0,0,14,1.48,15.6,4.76"/><path class="cls-5" d="M446.66,408.18s32-16.44,57.79,2.12c0,0-24.59-29.16-57.79-2.12"/><path class="cls-5" d="M472.74,398.64s9.53-4.25,26.74,0c0,0-20.49-15.11-44.36,3.71"/><line class="cls-12" x1="449.62" y1="384.05" x2="480.63" y2="435.69"/><line class="cls-12" x1="461.56" y1="364.02" x2="497.4" y2="425.99"/><line class="cls-12" x1="342.75" y1="364.02" x2="379.91" y2="421.09"/><line class="cls-12" x1="323.97" y1="384.05" x2="350.94" y2="425.99"/><path class="cls-8" d="M465.13,353.88s37.62,1.65,49.12,30.17C514.25,384.05,510.9,349.76,465.13,353.88Z"/><path class="cls-8" d="M343.6,353.88s37.63,1.65,49.13,30.17C392.73,384.05,389.38,349.76,343.6,353.88Z"/><path class="cls-8" d="M400.54,395s16.92-8.29,24.28.52C424.82,395.52,415.22,391.19,400.54,395Z"/><polygon class="cls-8" points="571.16 385.51 521.83 395.52 569.92 382.76 571.16 385.51"/><polygon class="cls-8" points="264.9 379.21 302.37 387.75 264.9 375.42 264.9 379.21"/><path class="cls-9" d="M417.29,428.21s-38.65,11.15-16.75,37.66C400.54,465.87,387,439.38,417.29,428.21Z"/><path class="cls-5" d="M311.6,362.13s17.33-33.89,49-27c0,0,13.28,5.94,4.6-7S295.9,332.68,311.6,362.13Z"/><path class="cls-8" d="M359,324.5s-43.73,4.3-46,27.61C312.94,352.11,303.15,329.09,359,324.5Z"/></g></svg>