<svg id="Capa_1" data-name="Capa 1" xmlns="http://www.w3.org/2000/svg" viewBox="0 0 841.89 595.28"><defs><style>.cls-1{fill:#65bc9a;}</style></defs><title>Mesa de trabajo 10</title><path class="cls-1" d="M352.17,90.43s-7.85.13-8.9-2S338,82.19,338,82.19l-5.75-.26-1.83,5s2.35,2.61-2.36,1.31-13.6-4.71-13.6-4.71L308,86.11l3.13,1.83-1.56,1.31s-.27-.26,2.61,2.36-.52,1,5.5,4.18,11.25,6.54,8.89,7.85-8.11,3.66-7.59,6a20.73,20.73,0,0,0,1.84,4.71l-2.62,2.35s-9.94,4.71-8.11,9.42,1.57.79,1.57.79l2.88.52s-2.88,2.09-2.36,2.88,2.09,8.11,2.09,8.11-7.32,4.18-7.58,5a10.89,10.89,0,0,1-2.36,3.66c-.78.53.79,7.33.79,7.33l4.18,4.45,3.67,3.92v3.4l2.35,1.57s6,8.37-4.45,10.47l5.24,2.09-.27,3.4,6.81,3.4,1.3-1.83a8.75,8.75,0,0,1,5.24,1.31,13.14,13.14,0,0,0,4.71,2.09l3.92,5,2.62,3.4h2.35l-.78,4.19s-2.1,2.88-4.19-.52c0,0-1.57,3.4-2.62,5.49s-5.49,7.06-3.66,9.68,1.83,5.49-3.14.26-9.68.26-9.68.26l-2.35,5.76-3.4,2.88s6.8.78,6.8-1.83,3.14,2.35-3.66,7.58-6,6.28-6,6.28,5.49,5.5-3.93,5.5c0,0,.53,6.27,2.62,7.58s2.62,9.68,5.76,4.19,7.58-6.54,8.89-4.19,1.05-3.4,3.14-5.23,4.45-6.8,6.54-5.23,3.66,1.83,4.45-2.36,5.23-8.11,7.32-6.8,7.07,6.54,6.81,8.9c0,0,8.89-5.24,1-14.92,0,0,3.8,1.18,3.93-1.3s1.18-10.34,4.84-9.42,3.53,1.83,3.53,1.83,5.62-4.32,5.23,3.79,3.27,16.88,6.15,16.61,7.85,1.57,8.5,4.32-2.74,2.49-3.92,1.44-4.32,2.88-3.93,3.66-.39,3.54-3.13,1.83-9-1.43-7.07.53,5.63,7.85,3.79,9.15.53,5.5,2.36,4.06,1.57,2.49-.65,2.09-3,2.62-3,2.62l.26,1.44,2,1.57s4.71,1.31,5.1,1,2.23-1.17,2.23-1.17-.53,3.27.65,4.31,4.06-.13,4.06-.13l3.4-2.87,2.48-4.71v-3.54l6.28-.39,3,2.36,3,3.66s9.42,2.88,9.81,3.14a36.28,36.28,0,0,1,2.48,3.4l-6,7.33,1.57,6.67L406.92,289l-2-1.76S403,298.82,401,298s2.94,1.57,4.51.59-.19,3.33-.19,3.33l-4.71-.78-.59,3.34-.79,2.55s-1.76.39-1.76,1,.39,7.45.39,7.45S391,319,394,320.79a15.41,15.41,0,0,0,6.28,2l-1.37,3.34-3.14,1.37,3.14,7.66s3.34,2.35,4.91,1.57,7.26,1.76,8.24,2.94,6.67,2.35,8,1,6.48,3.73,5.3,4.51-4.91,0-5.3,2.16-7.65,3.73-8.83,2.55-4.31,1.18-6.28.59-4.71,3.34-2.55,6.67,4.52,6.09,3.93,8.64-3.73,6.86-2.16,8-4.91-.2-5.5,6.48-3.33,8.43-2.35,9.22,6.28,4.51,10.79,2.75,5.5-.4,6.08,2,1,8.63,2.95,8.63-.59,3.34,1.57,3.73S424,403.6,424,403.6l2.74.78,3.14-3.92.2-.79s4.12,1.77,4.32,2.36,4.51,1.37,4.51,1.37,4.12,5.49,3.53,7.26,8.24-4.91,8.05-8-3.14-9.23-3.93-8.64,4.12-5.49,4.12-5.49l3.34,6.28a22.16,22.16,0,0,0,3.53,1.37c.59,0,8.18.78,12.1,9.94s6,14.91,8.9,14.13,4.44,11,9.41,9.68,7.85,7.06,10.21,5.49,6.28-3.4,8.37-1.57,5-.78,5-.78l1.83,2.09s-1.31,6,.79,7.85,2.35,2.62,2.35,4.71-2.09,5-2.09,5-3.4.52-1.83,2.88,3.14,2.62,3.14,2.62.78,3.4-.79,3.4-4.18-1.83-5,.52-1.05,5.23-.26,6a28.89,28.89,0,0,1,2.09,2.61s6.28,13.35,9.42,13.35,3.66-1.05,4.45-1.57a12.94,12.94,0,0,1,2.88-1.05h2.61l5.5,1.05.78-3.67,9.42-6L549.7,471v-2.36l4.45,1.83,1.83-2.09,3.92-.26,2.36,3.14s-7.07,2.09-4.45,6.54,22.24,24.59,25.64,23.28,3.92-2.61,3.4-1.31a17.48,17.48,0,0,0-.52,4.45l1,3.66-1.83,2.1s-6,3.14,10.73,2.61,66.19.79,66.19.79l20.67-14.65s-8.9-3.67-6.81-11.78-3.66-12.29-3.66-12.29-.52-5-7.06-5.5-9.68-3.14-9.16-6.54-5-4.44-5-4.44-7.85-5-5.76-10.21,3.14-13.86-1-17.27-10.21-2.35-10.21-2.35l-5,3.92-3.66-2.09-1.31,2.09s-20.67,2.36-20.93-2.09,2.88-1.57,2.1-6S598.88,410,595,409.74s-.52-2.09-1.83-4.7-11.78-1.57-15.18-3.41-6.28-16.22-23.28-12.29-34.8-3.67-35.84-7.07-6.54-3.4-6.54-3.4-8.38-7.06-8.9-16-4.45-.78-7.06-3.66-3.93-10.2-1.57-10.73-5.76-1-7.85-2.09-10.47-11-10.21-18.31-2.87-3.14-2.87-3.14-1.84-22.76-4.71-25.12-3.67-11.25-8.64-11.25-1-12-17.53-23.54-16.48-16.23-16.48-18.58-12.56-11.51-14.39-16-2.35-15.7-7.32-20.67-14.13-29.3-14.39-37.15S393,170.1,393,170.1s1.57,3.66,3.41,4.7,2.35-11.51,5.49-15.69.26-9.16-2.88-11S380.43,135,379.9,131.37c0,0,12.56,21.72,16.22,22.24s.79,8.37.79,8.37l-2.09-1.83-2.88,3.14s-2.36,1.83-3.14,1.31-9.68-5.49-10.21-11.77-5.23-11.25-5.49-18.84-4.19-23.81-5.49-23.55,0-11-5-9.68S355.83,88.73,352.17,90.43Z"/></svg>