<svg id="Capa_1" data-name="Capa 1" xmlns="http://www.w3.org/2000/svg" viewBox="0 0 841.89 595.28"><defs><style>.cls-1{fill:#f8d43f;}.cls-2{fill:#f59c43;}.cls-3{fill:#ce1328;}.cls-4{fill:#00694b;}.cls-5{fill:#fff;opacity:0.21;}.cls-6{fill:#e7a781;}.cls-7{fill:#e84f1c;}.cls-8{fill:#d1c1c2;}.cls-10,.cls-9{fill:#f8f7f7;}.cls-9{opacity:0.31;}.cls-10{opacity:0.35;}.cls-11{fill:#fad124;}</style></defs><title>Mesa de trabajo 8</title><path class="cls-1" d="M284.14,282.65C271,266.33,259,248.51,253.94,228.2c-6.83-27.62,0-56.54.62-85a193.27,193.27,0,0,0-3.4-40.31c14.93,20.65,30.07,41.71,38.21,65.86,1.08,3.2,2.45,6.89,5.67,7.93,4.14,1.33,7.95-2.65,10.36-6.28,17-25.48,26.9-56.18,49.33-77,3.94,25.24,7.89,50.72,6.24,76.22-.5,7.87-1.35,16.49,3.18,23a54.75,54.75,0,0,1,23.14-37.54,836.88,836.88,0,0,1,6.93,84,37.45,37.45,0,0,1,6-15.87c6.9-10.26,19.53-19.11,17.64-31.34-4.14,22.09,7.37,43.76,11.2,65.91,2.4,13.89,1.75,28.1,1.1,42.18-.12,2.55-.27,5.2-1.55,7.4-1.53,2.65-4.43,4.17-7.25,5.36-25.55,10.78-55.21,4.57-80.62-6.53-6.4-2.8-12.67-5.89-19.22-8.33-11.53-4.29-23.72-6.46-35.83-8.61"/><path class="cls-2" d="M286,265.76c-4.9.12-7.88-5-9.7-9.39-5.54-13.26-11.14-27.37-8.69-41.46.83-4.76,2.56-9.33,3.82-14a72.85,72.85,0,0,0-.4-39.19c7,10.57,14.17,21.36,17.42,33.51,1.12,4.17,1.77,8.5,3.67,12.4s5.39,7.44,9.84,8.05a4.41,4.41,0,0,0,2.52-.27c1.35-.66,1.86-2.24,2.22-3.66,2.95-11.53,5.48-23.22,10.11-34.22s11.59-21.45,21.72-28.26c-8.77,15-3.51,34-8.05,50.65-.91,3.33-2.23,6.64-2.06,10.08.27,5.83,4.64,10.63,8.78,14.91a199.9,199.9,0,0,1,19.93-31c-2.75,10.74-5.48,22.24-1.58,32.65,1.9,5.07,5.36,9.85,5.21,15.24-.09,3.33-1.58,6.52-1.65,9.85s2.23,7.2,5.7,7,5.22-4.08,6.15-7.32l8.08-28,3.32,17.81c1.92,10.27,3.83,20.78,2,31.06a15.14,15.14,0,0,1-1.14,3.91c-1.78,3.7-5.83,5.86-9.79,7.34a62.07,62.07,0,0,1-49.28-2.75c-11.78-6-22.18-16.15-35.52-16.87"/><path class="cls-3" d="M306.09,308.51c114.58,90.09,218.73,3.74,239.14-46.8s-9.71-19.6-9.71-19.6S449.82,342.68,350.8,256C350.8,256,237.39,254.5,306.09,308.51Z"/><path class="cls-4" d="M367.44,263.68l-21.61-5.34,2.75,17.44-30.17-17.16-.87,23.17-15.6-8.27-4.59,31.07s-23.43-24.76-19.83-37.54,18.21-23.73,18.21-23.73-14.53-32.26-30.09-26.4l-3.87-7.57s25.73-11.29,50.55,27.48C312.32,236.83,338.55,221.7,367.44,263.68Z"/><path class="cls-5" d="M329.51,244.49s-26.34-3.19-41.6,25.13C287.91,269.62,296.76,232.44,329.51,244.49Z"/><path class="cls-5" d="M355.83,270.51s26.57,29.06,54.68,29.05C410.51,299.56,350.15,298.88,355.83,270.51Z"/><path class="cls-6" d="M328.37,496l20.72-35.07,82.88,1.6,39.85-43.83,15.94-39.05-23.91-.8L449.5,407.53l-43.83,27.89-49.41-14.34s65.35-20.72,66.94-27.1-4-17.53-9.56-15.14S330.76,394,330.76,394s-11.95,9.57-15.14,14.35-43.83,59-43.83,59Z"/><polygon class="cls-7" points="183.62 558.18 316.84 555.75 341.92 493.6 268.6 449.77 183.62 558.18"/><path class="cls-8" d="M621.53,188.16h12.09A123.52,123.52,0,0,1,757.14,311.68v0a0,0,0,0,1,0,0H498a0,0,0,0,1,0,0v0A123.52,123.52,0,0,1,621.53,188.16Z" transform="translate(1007.18 -308.84) rotate(102.48)"/><rect class="cls-8" x="292.06" y="358.92" width="290.88" height="27.89" rx="5.88"/><circle class="cls-8" cx="691.03" cy="263.96" r="18.41"/><polygon class="cls-9" points="303.21 366.89 571.78 369.28 566.2 360.51 308 362.11 303.21 366.89"/><path class="cls-10" d="M610.08,133s65.85,27.45,61.66,77.4"/><path class="cls-9" d="M325.91,492.76l-29.12,36.81s12.61,7.57,13.72,6.06,19.42-27,19.42-27Z"/><path class="cls-9" d="M322.26,477.66s18.6-1.59,12.75-23.91"/><path class="cls-11" d="M300.33,90.1a59.38,59.38,0,0,1-1.75,21.84c-1.14,4.17-2.74,8.22-3.5,12.48-.5,2.85-.4,6.27,1.91,8a5.8,5.8,0,0,0,6.38-.08,11.89,11.89,0,0,0,4.15-5.25,25.69,25.69,0,0,0,2-14.52,51.17,51.17,0,0,0-2.21-8.22l-5.1-15.47"/><path class="cls-11" d="M405.19,171.71a27.6,27.6,0,0,0-3.3,9,6.55,6.55,0,0,0,.52,4.8c.91,1.37,3.21,1.85,4.18.52a3.7,3.7,0,0,0,.54-1.94,24.25,24.25,0,0,0-2.43-12.34"/><path class="cls-11" d="M376.82,94.32l-.07,28.51a15.42,15.42,0,0,0,.7,5.67,5.19,5.19,0,0,0,4.19,3.47,2.12,2.12,0,0,0,1.65-.5,2.78,2.78,0,0,0,.63-1.74c1.51-12.41-2.56-24.74-6.57-36.59"/><path class="cls-11" d="M340,59.19l-2.87,14.58a11.62,11.62,0,0,0-.28,4.72A4,4,0,0,0,340,81.72a3.93,3.93,0,0,0,3.7-2.22,10.59,10.59,0,0,0,1-4.46A85.4,85.4,0,0,0,344.16,60c-.26-2.12-1-4.71-3.15-5a4.34,4.34,0,0,0-1.14,3.67"/></svg>