<svg id="Capa_1" data-name="Capa 1" xmlns="http://www.w3.org/2000/svg" viewBox="0 0 841.89 595.28"><defs><style>.cls-1{fill:#ce1328;}.cls-2{fill:#00694b;}.cls-3{fill:#fff;opacity:0.21;}</style></defs><title>Mesa de trabajo 6</title><path class="cls-1" d="M654.69,277.32c-117.16,304.53-416.4,257.76-513.56,184s-3.77-48.83-3.77-48.83S417.41,507.7,508.58,227.63C508.58,227.63,724.94,94.73,654.69,277.32Z"/><path class="cls-2" d="M485.33,261.38l35.46-35L535.48,263l38.37-67.55L602.06,239l20.54-33.76L667,259.77s16.72-74.46-4.84-94.92S600,140.07,600,140.07s-9-78.69,27.63-85.24l-1.24-19s-62.41,7.76-65.75,110.77C560.59,146.61,492.8,147.55,485.33,261.38Z"/><path class="cls-3" d="M515.5,261.22s-17.81,86.32-71.9,118.53C443.6,379.75,558.93,309.28,515.5,261.22Z"/></svg>