<svg id="Capa_1" data-name="Capa 1" xmlns="http://www.w3.org/2000/svg" viewBox="0 0 841.89 595.28"><defs><style>.cls-1{fill:#8dc373;}.cls-2{fill:#ead16a;}.cls-3{fill:none;stroke:#4bae3f;stroke-miterlimit:10;stroke-width:18px;}.cls-4{fill:#4bae40;}.cls-5{fill:#fff;opacity:0.33;}</style></defs><title>Mesa de trabajo 3</title><polygon class="cls-1" points="556.03 96.74 532.13 192.87 570.65 224.01 602.7 132.98 556.03 96.74"/><path class="cls-1" d="M463.63,88.52,439.34,146,466.5,345.69l75.25,34.92-5.66,30.94,45.55,52.07,63.68-112.3L650,262.27l-6.77-59.41L619.39,160l-41.55-40.46-25.69,80.86,34.71,37.25,2.63,49-19.6,30.59s-18.65-8.68-21.92-9.22-30.91,11.5-30.91,11.5l-24.15-25.31-14-60.36L495.45,194l20.15-8.6,31.65,12.71,18.26-90.46L489.62,72.93Z"/><path class="cls-1" d="M319.62,301.3l32.09-.46,7.52,40.07s-48.47,31.26-43.51,41.43,41.61,78.53,41.61,78.53l48.2,7.19,60,5,37.94-21.36,36-31.47-2.06-46.56,55.7,71.59L543,499.58,444.81,525,345,508.84l-76.29-59s-23.18-96.54-23.75-99-4.71-97.32-4.71-97.32l23.69-93L325,91l69.37-27.39s71.75,1.68,80.58,2.25,59.55,16.7,59.55,16.7l-82.12,73.89L388.85,141,350.3,159.19l-35.76,44.86-13,56.79,4.7,42.7Z"/><path class="cls-1" d="M515.6,185.37s-55.85,6.84-30.91,62,15.79,60.8,15.79,60.8l23.79,50.24S487,346.05,483.34,347c-38.53,10.25-40.07-1-44.42-.16s-64.12-2.58-64.12-2.58l-36.28,4.92-11.27-48.78L368,288.36l6.72-31.17,37-20.75L428.79,175l27.06-18.46Z"/><path class="cls-2" d="M387.35,341.29s15.35,13.83,1.67,27.86-73.85,22.46-66.17,2.07c.27-.71,4.57-5.62,4.57-5.62l4.75-7.62,4.8-4.59s7.27-5.16,7.89-5.3S366,341,366,341l9.71-1.16,4.73,2.82Z"/><path class="cls-2" d="M439.85,349.92s30.14,40.25-2.08,59.87-55.56.65-37.76-62.26l6.72,3.11,6.3-.3,9-2.37,10.06-.31Z"/><path class="cls-2" d="M511.62,352.43s25.53,72.88-52,63c0,0-41.35-28.66-.41-61.9l29.07-11.94s6.94,2.45,8.25,13.15Z"/><path class="cls-2" d="M409.84,231.58s-11.25-76.48-42.74-41.81c0,0-8.24,7.55-12,6.25s-6.16,29.68-3,34.15-24-15.73-37.59,8.27-14.22,64.56,32.8,53.67c1.24-.28,14.93-3,14.93-3s1.92-38.68,34-42.63C396.26,246.46,404,250.75,409.84,231.58Z"/><path class="cls-2" d="M485.41,252.76s43.76-37.95,21.74-63.7c0,0-28.33,6.38-30.37,41.05l-.2,9.11Z"/><path class="cls-2" d="M548,308.09s14.62-6.86,10.6-15.49,7.57-33.62-2.91-40.18.94-22.23-13.56-22.35-51.67,13.12-53,33.71,4.67,34,4.67,34L500.32,311l16.74,8.58,4.23.76Z"/><path class="cls-3" d="M619.39,160S515,8.66,347,85.79s-94.8,326.13-75.64,356.46,83.36,90.2,178.33,80.38,171-63.94,198.09-202.3C647.75,320.33,664.07,233.12,619.39,160Z"/><path class="cls-4" d="M506.79,185.08c5.48,11.19,18.9,18.7,31.34,17.1l-7.24-5.51L532.1,202c1.21,5.43,8.79,7.35,12.53,3.31.53-.54.24-.34-.86.59a2.26,2.26,0,0,1,.49-.25l-1.79.75a4,4,0,0,1,.78-.18l-2,.27a4.61,4.61,0,0,1,.83,0l-2-.27a6.36,6.36,0,0,1,1.13.33l-1.79-.75c.37.17.72.44,1.1.61-1.07-.86-1.31-1.05-.74-.57l.49.46c1.26,1.31-.7-1.24-.13-.2a12.29,12.29,0,0,1,.59,1.14l-.75-1.79c1.45,3.68,2.41,7.48,5.14,10.49a12.37,12.37,0,0,0,6.44,3.71c2.33.48,4.56.22,6.88.45l-2-.26a7.07,7.07,0,0,1,1.55.4l-1.8-.76c.24.11.48.3.72.38.52.19-1.08-1-.76-.58,0,0,.56.55.55.57s-1.12-1.63-.59-.74,1.06,1.87,1.54,2.83a19.1,19.1,0,0,0,4.55,6.16c4,3.39,8.84,4.91,13.64,6.91l-1.79-.76c.82.35,1.63.72,2.41,1.13.39.21.77.42,1.14.65s1.73,1.23.58.34.08.12.34.38,1.33,1.54.51.47.15.3.33.62a13.54,13.54,0,0,1,.73,1.48l-.75-1.8a18.53,18.53,0,0,1,1.14,4.31l-.27-2a25.78,25.78,0,0,1-.05,6.45l.26-2c-.66,4.65-2.28,9.08-3.28,13.65a41.41,41.41,0,0,0-.73,14.63,40.62,40.62,0,0,0,12.26,24.24V286.27a130.08,130.08,0,0,0-25.27,27.26l13.71,5.78c2.19-6.54-2.83-12.44-8.77-14.34a15.63,15.63,0,0,0-8.2-.21c-2.23.47-4.34,1.36-6.6,1.73l2-.27a10.2,10.2,0,0,1-2.53,0l2,.27a8.21,8.21,0,0,1-1.45-.4l1.79.76c-.3-.14-.57-.3-.86-.45-1.12-.58,1.5,1.33.39.25s.63,1.13.35.5c-.14-.34-.39-.67-.55-1l.76,1.8a7.87,7.87,0,0,1-.53-1.88l.27,2a7.31,7.31,0,0,1,0-1.62l-.27,2a8.2,8.2,0,0,1,.23-.95,7.54,7.54,0,0,0-11-8.47l-27.84,15.35h7.57c-3.22-1.73-6.65-3-10-4.44l1.79.76a45.15,45.15,0,0,1-6.11-3c-.47-.29-.92-.59-1.37-.91-1.57-1.11,1,.91.08.07-.71-.63-1.42-1.26-2.08-1.95q-.5-.51-1-1.05c-.4-.47-1.32-1.91.06.14-.53-.79-1.1-1.54-1.6-2.35a38.22,38.22,0,0,1-2.62-5.14l.76,1.79a66.44,66.44,0,0,1-4.11-16.55l.27,2c-1.1-8.36-1.48-16.85-3.44-25.08a51.9,51.9,0,0,0-4.63-12.42,35.12,35.12,0,0,0-3.12-4.79c-.47-.62-.95-1.23-1.43-1.85.75,1,.88,1.14.41.52-.25-.33-.5-.66-.74-1a16.51,16.51,0,0,1-1.65-2.85l.75,1.79a11.3,11.3,0,0,1-.68-2.55l.27,2a18.48,18.48,0,0,1,.11-4.58l-.26,2a96,96,0,0,1,6-22.93l-.75,1.79a41.47,41.47,0,0,1,4.45-8.07,2.53,2.53,0,0,0,.31-.42c.06-.13-1.14,1.43-.65.85.25-.31.49-.62.75-.92.48-.56,1-1.1,1.51-1.62a21,21,0,0,1,1.63-1.5l.39-.33c.58-.5-1,.72-.84.65.39-.22.75-.56,1.12-.81,4.82-3.24,10.72-4.46,15.44-7.85,3.79-2.72,6.85-6.17,8-10.82.93-3.81-1.2-8.31-5.23-9.23-3.86-.88-8.24,1.16-9.23,5.24a10.94,10.94,0,0,1-.57,1.73l.76-1.79a15.1,15.1,0,0,1-.85,1.52c-.65,1.06,1.31-1.51.47-.6-.2.22-.39.44-.59.64-.55.55-2.28,1.65-.06.18-.6.4-1.17.82-1.8,1.19a63,63,0,0,1-7.09,3.36c-5.6,2.42-10.66,5.64-14.5,10.48a55,55,0,0,0-9.08,17.74,110.5,110.5,0,0,0-4.28,19.53A19.37,19.37,0,0,0,472.29,247c.24.34.5.67.75,1,.48.61.95,1.23,1.43,1.85-.74-1-.88-1.15-.41-.53s1.13,1.55,1.65,2.36a36.65,36.65,0,0,1,2.61,5l-.76-1.79a63.75,63.75,0,0,1,4,16.27l-.27-2c1.15,8.7,1.52,17.54,3.71,26.07,2.09,8.16,5.92,16.55,12.48,22.08a35.72,35.72,0,0,0,7.07,4.75c2.75,1.37,5.63,2.48,8.46,3.67l-1.79-.76c1.32.56,2.63,1.13,3.91,1.77a12.07,12.07,0,0,0,4.92,1.62c1.87.08,3.52-.88,5.09-1.75l8.92-4.91L551.69,312l-11-8.47a14.25,14.25,0,0,0,6.67,16.11c3.41,1.85,7.11,1.95,10.83,1.23,2.34-.45,4.55-1.45,6.91-1.79l-2,.27a8.36,8.36,0,0,1,1.87,0l-2-.27a9.85,9.85,0,0,1,1.84.51l-1.79-.76a8.16,8.16,0,0,1,.84.41c.77.42.64.8-.52-.5.12.13.47.56.6.6-.28-.08-1.18-1.81-.59-.62l-.75-1.79a4.87,4.87,0,0,1,.23.74l-.27-2a3.46,3.46,0,0,1,0,.79l.27-2a4.78,4.78,0,0,1-.2.83c-1.19,3.54,1.08,7.47,4.34,8.85,3.6,1.52,7.2,0,9.37-3.07q1.25-1.8,2.55-3.54l.66-.87c.56-.74-1.05,1.33-.23.3.45-.57.9-1.14,1.36-1.7q2.76-3.39,5.75-6.58a123.85,123.85,0,0,1,12.83-11.83,7.43,7.43,0,0,0,2.19-5.3,7.63,7.63,0,0,0-2.19-5.31c-.8-.75-1.57-1.53-2.3-2.35-.1-.12-1.16-1.18-1.11-1.34,0,0,1.1,1.5.48.59-.18-.27-.38-.52-.56-.79a34.44,34.44,0,0,1-3.22-5.94l.76,1.79a34.93,34.93,0,0,1-2.32-8.58l.27,2a33.51,33.51,0,0,1,0-8.49l-.26,2c.68-4.7,2.31-9.18,3.32-13.81a33.79,33.79,0,0,0,.21-15.46,21,21,0,0,0-9-12.48c-3.36-2.22-7.36-3.36-11.05-4.9l1.79.75a25.93,25.93,0,0,1-2.66-1.27c-.42-.23-.82-.5-1.23-.75-1.14-.71.67.41.62.52s-.44-.37-.48-.41c-.36-.32-.67-.68-1-1-.61-.59,1.11,1.59.47.63-.12-.19-.25-.38-.36-.57-.58-.92-1-1.91-1.53-2.88a15.71,15.71,0,0,0-5.93-6.7,14.22,14.22,0,0,0-6.38-1.7c-1.3-.08-2.59,0-3.89-.08l2,.27a8.45,8.45,0,0,1-1.56-.38l1.79.75a5,5,0,0,1-.57-.28c-.63-.4-.37-.18.76.65a5.77,5.77,0,0,1-.44-.42c-.49-.55-.3-.29.58.8-.41-.76-.87-1.46-1.21-2.27l.76,1.79c-1.57-3.85-2.49-7.91-5.8-10.75a13.93,13.93,0,0,0-8.18-3.64,10.13,10.13,0,0,0-8.06,3.19l12.54,3.31-1.2-5.36a7.15,7.15,0,0,0-2.69-3.9,6.83,6.83,0,0,0-4.54-1.61,24.18,24.18,0,0,1-6.07,0l2,.26a25.79,25.79,0,0,1-6.2-1.69l1.79.76a26,26,0,0,1-3.81-2c-.56-.35-1.09-.73-1.63-1.12s1.59,1.29.4.28c-.28-.23-.55-.46-.81-.71-.48-.44-.95-.9-1.39-1.39s-1.87-2.53-.43-.4a30.53,30.53,0,0,1-2.23-3.68c-1.72-3.53-7-4.77-10.26-2.69a7.7,7.7,0,0,0-2.69,10.27Z"/><path class="cls-4" d="M448.5,152a26.56,26.56,0,0,0-17.77,8.31,57.4,57.4,0,0,0-9.86,14.46c-3,5.88-5.75,11.9-8.34,18A144,144,0,0,0,405,213.9a95.66,95.66,0,0,0-2.26,12.68c-.41,3.55-.32,7.12-.76,10.66l.27-2a16.89,16.89,0,0,1-1,3.92l.76-1.79a10.75,10.75,0,0,1-.72,1.44c-.15.25-.69,1,.08,0s0-.11-.12.07a4.65,4.65,0,0,0-.55.51c0-.15,1.56-1,.64-.52-.53.3-1,.6-1.6.86l1.79-.76a32.4,32.4,0,0,1-6.95,1.71,40.64,40.64,0,0,0-6.4,1.65,48.06,48.06,0,0,0-13.5,7.33A50.47,50.47,0,0,0,357.47,274a47.13,47.13,0,0,0-1.82,8.88c-.31,2.49-.23,5-.53,7.5l.27-2a12.64,12.64,0,0,1-.75,3l.75-1.79c-.14.31-.29.59-.46.89-.54,1,1.09-1.15.47-.58s-.21-.14.59-.36a7.16,7.16,0,0,0-1,.56l1.8-.75a12.17,12.17,0,0,1-3,.76l2-.26c-8.91,1.1-17.92,1.64-26.85,2.46l-27.27,2.47,7.23,5.5c-1.46-8.83-3.12-17.67-4.35-26.54l.26,2a21,21,0,0,1-.1-5.14l-.26,2a15.34,15.34,0,0,1,.94-3.32l-.76,1.79c.91-2.12,2.13-4.07,3.19-6.12a49.65,49.65,0,0,0,2.86-6.82,63.85,63.85,0,0,0,2.47-12.63c.89-7.7.73-15.49,1.74-23.18l-.26,2a45,45,0,0,1,2.84-11.19l-.76,1.79a30.61,30.61,0,0,1,1.88-3.7c.36-.6.74-1.19,1.15-1.76s1.2-1.38-.32.39c.25-.29.48-.59.72-.87a87.54,87.54,0,0,1,7.16-6.73,34.3,34.3,0,0,0,7.18-8.86,118.41,118.41,0,0,0,4.69-10.92l-.75,1.79a64.1,64.1,0,0,1,4.37-8.43q1.29-2.05,2.71-4l.67-.9c.46-.62-.69.85-.61.78a2.51,2.51,0,0,0,.35-.44c.54-.68,1.1-1.35,1.66-2a65.59,65.59,0,0,1,6.71-6.73q.84-.74,1.71-1.44c.27-.22,1.47-1.16.41-.34s.16-.12.43-.32c1.24-.92,2.53-1.8,3.84-2.64a64.66,64.66,0,0,1,9.72-5.09l-1.79.75a78,78,0,0,1,19-4.84c7.6-1.09,15.22-2.1,22.83-3.14l-5.78-.76L416,150.83a29.84,29.84,0,0,0,6.53,2.92c3.17.8,6.06.29,9.24-.16l-2,.27a13.17,13.17,0,0,1,3-.05l-2-.26a12.27,12.27,0,0,1,3,.8l-1.79-.76a13.2,13.2,0,0,1,2.13,1.14c.65.43.87,1-.4-.35.27.29.61.53.9.82s.55.59.82.89c.84.92-1-1.54-.33-.41a18,18,0,0,1,1.15,2.12l-.75-1.79a12.68,12.68,0,0,1,.81,3l-.26-2a14.05,14.05,0,0,1,.08,1.72,7.56,7.56,0,0,0,7.5,7.5,7.64,7.64,0,0,0,7.5-7.5,19.47,19.47,0,0,0-6.95-15,20.79,20.79,0,0,0-8.05-4.33c-3.56-.9-6.65-.43-10.23.06l2-.27a13.2,13.2,0,0,1-2.35.08l2,.26a10.11,10.11,0,0,1-2.41-.65l1.79.75c-4-1.74-7.85-4.09-11.72-6.16-.93-.49-1.85-1-2.79-1.49a8.25,8.25,0,0,0-5-1l-2.71.37-6.84.94c-8.61,1.18-17.49,1.91-25.89,4.24a72.22,72.22,0,0,0-36.45,23.95,75,75,0,0,0-7.39,10.8,133.11,133.11,0,0,0-5.72,12.94l.75-1.79c-.5,1.19-1,2.37-1.65,3.51-.27.51-.56,1-.87,1.49s-1.87,2.24-.29.53a68.56,68.56,0,0,1-5.2,5.17c-3.83,3.37-7.45,6.89-10,11.39-4.71,8.41-5.61,18.14-6.13,27.58-.27,5-.45,10-1.1,15l.26-2a47.7,47.7,0,0,1-3,11.87l.75-1.79c-1.56,3.64-3.78,6.93-5.19,10.65-1.78,4.69-1.12,9.56-.33,14.37q2,12.11,4,24.21a6.87,6.87,0,0,0,2.68,3.9,7,7,0,0,0,4.55,1.61l32.47-2.95,16.12-1.46a66.16,66.16,0,0,0,8.88-1,14,14,0,0,0,8.6-6c3.1-4.7,2.28-10.54,3-15.84l-.27,2a40.1,40.1,0,0,1,2.74-9.84l-.76,1.79a43.46,43.46,0,0,1,3.69-6.85c.4-.59.8-1.17,1.22-1.74.19-.25.88-1.15.06-.09s-.12.17.08-.07c.86-1.06,1.77-2.07,2.72-3s1.87-1.8,2.87-2.64c.51-.44,2.42-1.72.28-.27.53-.36,1-.76,1.58-1.13a40.18,40.18,0,0,1,7-3.81l-1.8.75a43.48,43.48,0,0,1,9.29-2.6c4.48-.79,8.65-2.06,12.13-5.15,6.9-6.14,5.34-16.38,6.42-24.62l-.27,2c1.33-9.67,4.47-18.94,8.24-27.9l-.76,1.79A224.42,224.42,0,0,1,435.58,179c.86-1.52,1.76-3,2.74-4.45.42-.62,2.22-2.84.5-.78.53-.63,1-1.27,1.57-1.88s1.09-1.17,1.67-1.72,2.77-2.12.52-.57a24.17,24.17,0,0,1,4.23-2.46l-1.79.76a17.2,17.2,0,0,1,4.11-1.09l-2,.27c.45-.05.9-.09,1.36-.11,3.91-.19,7.68-3.31,7.5-7.5-.18-3.9-3.31-7.7-7.5-7.5Z"/><path class="cls-4" d="M536.2,385.15c-.26,5-.62,10-1.28,15l.27-2a75.44,75.44,0,0,1-4.85,19.22l.75-1.79a42.93,42.93,0,0,1-4.12,7.56c-.19.28-.39.55-.59.82s-.21.26-.3.4,1.16-1.45.66-.86-.92,1.12-1.41,1.66a32.25,32.25,0,0,1-3,2.93c-.25.2-1.26,1-.18.16s.06,0-.2.14c-.66.47-1.34.92-2,1.35-1.51.92-3.08,1.73-4.63,2.56a38.86,38.86,0,0,0-9.52,6.57c-1.33,1.32-2.46,2.82-3.71,4.22-.59.67-1.26,1.26-1.88,1.9s.73-.61.78-.58-.57.4-.63.43a10.63,10.63,0,0,1-1.41.76l1.79-.75a16,16,0,0,1-4,1l2-.27c-3.95.49-8,.42-11.86,1.6a35.55,35.55,0,0,0-9,4.28,86.33,86.33,0,0,0-8.14,6.23c-1.11.92-2.2,1.86-3.3,2.78-.55.46-1.09.92-1.65,1.37l-.77.62-.51.41c-.77.62.72-.53.75-.57a8.07,8.07,0,0,1-2,1.44c-.61.43-1.23.85-1.86,1.24a31.1,31.1,0,0,1-4.31,2.27l1.79-.76a22.34,22.34,0,0,1-5.43,1.5l2-.27a22.33,22.33,0,0,1-5.48,0l2,.27a48.58,48.58,0,0,1-12.15-3.8l1.79.76c-5-2.11-10-4.55-15.4-5.56a30.46,30.46,0,0,0-9-.57c-3.61.39-7.11,1.25-10.69,1.76l2-.27a28.89,28.89,0,0,1-7.66,0l2,.26c-6.5-.95-12.59-3.56-19-5a42.15,42.15,0,0,0-11.13-1.07c-3.24.17-6.48.66-9.73.29l2,.27a14.06,14.06,0,0,1-3.45-.92l1.79.76c-.5-.23-.95-.49-1.43-.77s-.71-.79.53.46a5.72,5.72,0,0,0-.46-.4c-.41-.37-.79-.76-1.16-1.16s-1.55-2.14-.26-.25c-1.36-2-2.83-4-4.23-5.94l-9.05-12.79c-5.41-7.63-11-15.19-15.82-23.2a106.82,106.82,0,0,1-7-13.46l.75,1.79A65.77,65.77,0,0,1,319.41,383l.27,2a24.51,24.51,0,0,1-.29-5.47l-.26,2a8.46,8.46,0,0,1,.5-2l-.75,1.79a4.54,4.54,0,0,1,.37-.73c.43-.64.25-.41-.53.66.16-.17.32-.33.5-.49.58-.48.35-.31-.69.53.87-.36,1.69-1,2.55-1.39a31.26,31.26,0,0,0,6.28-3.88c3.46-2.74,6.06-6.38,8.64-9.92.55-.76,1.1-1.52,1.67-2.27.34-.46,1.58-1.85,0,0,.32-.37.62-.78.94-1.16a34.33,34.33,0,0,1,4.29-4.32c.48-.4,2-1.3,0,0,.42-.27.82-.6,1.24-.89.83-.58,1.69-1.12,2.57-1.63a49.35,49.35,0,0,1,5.5-2.73l-1.79.76a78.22,78.22,0,0,1,11.94-3.81c4.12-1,8.32-2,12.52-2.55l-2,.27a11.14,11.14,0,0,1,2.16-.05l-2-.27a6.57,6.57,0,0,1,1.62.43l-1.79-.76c1,.48,1.91,1.16,2.92,1.65a12.67,12.67,0,0,0,6.24,1.5c2.91-.14,5.35-1.46,8.17-1.89l-2,.27a8.73,8.73,0,0,1,1.77,0l-2-.26a8.62,8.62,0,0,1,1.92.56l-1.79-.76a13.3,13.3,0,0,1,1.95,1.09l.87.62c.63.45-1.61-1.27-.38-.29,1.59,1.28,3.15,2.6,4.82,3.76a23.63,23.63,0,0,0,11.28,3.73c6.76.68,13.54-1.49,20.19-2.39l-2,.27a31.91,31.91,0,0,1,7.93-.17l-2-.27a24.18,24.18,0,0,1,5.85,1.67l-1.79-.75c4,1.69,7.78,4,12,5a28.72,28.72,0,0,0,13.39,0c7.52-1.65,14.2-5.93,21.22-8.92l-1.79.76a29.84,29.84,0,0,1,7.21-2.23l-2,.27a13.9,13.9,0,0,1,3.47,0l-2-.26a9.61,9.61,0,0,1,1.91.51l-1.79-.75c.41.17,1.74,1.07.64.22s-.34-.27-.13-.05c.93,1-.4-.51-.38-.53s1.41,2.65,1.55,2.9A14.61,14.61,0,0,0,496,359c4.12,1.51,8.6.82,12.87,1.35l-2-.27a13.11,13.11,0,0,1,3,.78l-1.79-.75c.42.19.81.44,1.22.65.7.34-1.37-1.28-.58-.45.2.2.39.41.6.6.58.53-1-1.41-.55-.74.15.24.32.47.46.71a14.59,14.59,0,0,1,.77,1.53l-.75-1.79c1.62,3.89,2.29,8,4.19,11.82a28.5,28.5,0,0,0,7.72,9.42,31.85,31.85,0,0,0,26.13,6.73c3.86-.73,6.42-5.59,5.24-9.22-1.33-4.13-5.09-6-9.23-5.24-.45.08-.9.16-1.36.22l2-.27a22.83,22.83,0,0,1-5.84-.05l2,.27a25.21,25.21,0,0,1-6-1.66l1.79.76a26.93,26.93,0,0,1-4-2.11c-.65-.43-2.33-2-.44-.25-.56-.51-1.15-1-1.69-1.48s-1-1.07-1.54-1.63a4.92,4.92,0,0,1-.66-.8l.76,1-.4-.56a23.76,23.76,0,0,1-2.16-3.92l.76,1.79c-1-2.42-1.49-5-2.35-7.47-1.4-4-3.42-7.37-6.93-9.85-5.07-3.56-11.13-2.47-16.87-3.21l2,.27a12.18,12.18,0,0,1-2.59-.67l1.79.76c-.36-.16-.68-.34-1-.53-1-.53,1.42,1.35.59.47-1.12-1.17.59,1,.21.39-.23-.39-.47-.76-.68-1.16a17.52,17.52,0,0,0-3.61-5.24c-4.18-3.77-9.54-4.23-14.86-3.35-3.91.64-7.7,2.48-11.26,4.15-3.39,1.57-6.7,3.31-10.14,4.77l1.79-.75a35.51,35.51,0,0,1-8.56,2.51l2-.27a21.21,21.21,0,0,1-5.34,0l2,.27a23.78,23.78,0,0,1-5.59-1.65l1.79.76c-3.2-1.37-6.29-3-9.56-4.24a28,28,0,0,0-9.84-1.66c-6,0-11.89,1.65-17.81,2.48l2-.27a30.78,30.78,0,0,1-7.67.21l2,.27a17.18,17.18,0,0,1-4.11-1.08l1.79.76a15.35,15.35,0,0,1-2.56-1.37c-.4-.27-.77-.57-1.17-.84,2.05,1.4.54.41.09,0a38.39,38.39,0,0,0-5.72-4.2,15.11,15.11,0,0,0-8.23-2,19.45,19.45,0,0,0-4.72,1,18.06,18.06,0,0,1-3.06.86l2-.27a6,6,0,0,1-1.53,0l2,.27a6.29,6.29,0,0,1-1.12-.34l1.79.76c-1.93-.92-3.55-2.2-5.67-2.77a19,19,0,0,0-8.51.15c-3.1.57-6.2,1.18-9.27,1.88a79.51,79.51,0,0,0-19.3,6.78A48,48,0,0,0,332,348a48.81,48.81,0,0,0-7,7.95c-.83,1.1-1.63,2.22-2.45,3.33-.37.51-2.09,2.63-.41.58-.54.67-1.07,1.35-1.64,2a27.2,27.2,0,0,1-2.84,2.84c-.51.44-1.43.81.38-.26-.31.18-.59.42-.89.62a18.9,18.9,0,0,1-2.25,1.24c-3.59,1.74-7.07,3.67-8.91,7.43-2.27,4.62-1.58,9.6-.79,14.49a75.27,75.27,0,0,0,6.95,20.61c6.24,12.9,15.14,24.4,23.38,36l7.76,11c2.84,4,5.49,8.23,9.62,11,3.92,2.65,8.88,3.26,13.5,3,3.79-.2,7.47-.63,11.26-.12l-2-.27c6.38.93,12.35,3.44,18.61,4.87a40.31,40.31,0,0,0,10.88,1.18c4.07-.21,8-1.28,12-1.86l-2,.26a25.18,25.18,0,0,1,6.49-.05l-2-.27a49.75,49.75,0,0,1,12.24,3.84l-1.79-.75c4.54,1.91,9.08,4.08,13.89,5.22a30.08,30.08,0,0,0,15.45-.11c8.41-2.49,14.83-8.57,21.42-14l1.27-1.05c.18-.13.35-.27.52-.41l.51-.4-1,.77a11,11,0,0,1,2.63-1.91,33.8,33.8,0,0,1,5.55-3.08l-1.79.76a23.43,23.43,0,0,1,5.69-1.56l-2,.27c4.06-.5,8.38-.27,12.24-1.81a20.53,20.53,0,0,0,6.7-4.18,42.31,42.31,0,0,0,3.34-3.73c.51-.59,1-1.17,1.55-1.73.27-.28.55-.56.84-.82s1.5-1.24.48-.46.12-.08.37-.25.67-.45,1-.66c.8-.51,1.62-1,2.44-1.44a74,74,0,0,0,8.7-5.08,43,43,0,0,0,12.92-15.26,69,69,0,0,0,6-18.46,173.75,173.75,0,0,0,2.36-22.19,7.55,7.55,0,0,0-7.5-7.5,7.66,7.66,0,0,0-7.5,7.5Z"/><path class="cls-5" d="M618.07,209.55s34.4,163.92-91.62,266.27C526.45,475.82,677.23,400.26,618.07,209.55Z"/><path class="cls-2" d="M358.45,264.81s-13.93,32.85,4,39.82,31.83-27.88,21.88-32.85S384.31,237.92,358.45,264.81Z"/><path class="cls-2" d="M465.88,254.85c-1.59,2.72-24.87,17.92-11.94,32.86s45.76-8,42.78-22.9S472.84,242.9,465.88,254.85Z"/><path class="cls-2" d="M456.93,303.64s-23.88,26.88-2,43.81,30.83-24.89,20.89-35.85S465.88,294.68,456.93,303.64Z"/><path class="cls-2" d="M405.2,232s-22.09,21.44-14.53,36.11,31.44,6.7,31.44-24.16S405.2,232,405.2,232Z"/></svg>